<svg version="1.1" viewBox="0.0 0.0 720.0 720.0" fill="none" stroke="none" stroke-linecap="square" stroke-miterlimit="10" xmlns:xlink="http://www.w3.org/1999/xlink" xmlns="http://www.w3.org/2000/svg"><clipPath id="g1539813adea_0_11.0"><path d="m0 0l720.0 0l0 720.0l-720.0 0l0 -720.0z" clip-rule="nonzero"/></clipPath><g clip-path="url(#g1539813adea_0_11.0)"><path fill="#000000" fill-opacity="0.0" d="m0 0l720.0 0l0 720.0l-720.0 0z" fill-rule="evenodd"/><path fill="#999999" d="m414.77625 264.12503l0 0c55.12326 -24.280258 82.90564 -81.661255 67.15518 -138.70065l-34.95511 6.5729065l0 0c13.102417 42.02182 -7.5799255 84.24928 -49.472565 101.00879z" fill-rule="evenodd"/><path fill="#595959" d="m171.54228 20.46003l0 0c-11.465759 0 -20.76059 67.148544 -20.76059 149.98047c0 82.83194 9.29483 149.98048 20.76059 149.98048l-124.563614 0c-11.465763 0 -20.760601 -67.148544 -20.760601 -149.98048c0 -82.83193 9.294838 -149.98047 20.760601 -149.98047z" fill-rule="evenodd"/><path fill="#9b9b9b" d="m171.54228 20.46003l0 0c11.465775 0 20.760605 67.148544 20.760605 149.98047c0 82.83194 -9.29483 149.98048 -20.760605 149.98048l0 0c-11.465759 0 -20.76059 -67.148544 -20.76059 -149.98048c0 -82.83193 9.29483 -149.98047 20.76059 -149.98047z" fill-rule="evenodd"/><path fill="#000000" fill-opacity="0.0" d="m171.54228 320.421l0 0c-11.465759 0 -20.76059 -67.148544 -20.76059 -149.98048c0 -82.83193 9.29483 -149.98047 20.76059 -149.98047l0 0c11.465775 0 20.760605 67.148544 20.760605 149.98047c0 82.83194 -9.29483 149.98048 -20.760605 149.98048l-124.563614 0c-11.465763 0 -20.760601 -67.148544 -20.760601 -149.98048c0 -82.83193 9.294838 -149.98047 20.760601 -149.98047l124.563614 0" fill-rule="evenodd"/><path fill="#595959" d="m487.4092 108.97193l0 0c-8.372131 0 -15.159088 27.14782 -15.159088 60.63636c0 33.48854 6.786957 60.636368 15.159088 60.636368l-310.60382 0c-8.372131 0 -15.159088 -27.147827 -15.159088 -60.636368c0 -33.48854 6.786957 -60.63636 15.159088 -60.63636z" fill-rule="evenodd"/><path fill="#9b9b9b" d="m487.4092 108.97193l0 0c8.372131 0 15.159088 27.14782 15.159088 60.63636c0 33.48854 -6.786957 60.636368 -15.159088 60.636368l0 0c-8.372131 0 -15.159088 -27.147827 -15.159088 -60.636368c0 -33.48854 6.786957 -60.63636 15.159088 -60.63636z" fill-rule="evenodd"/><path fill="#000000" fill-opacity="0.0" d="m487.4092 230.24466l0 0c-8.372131 0 -15.159088 -27.147827 -15.159088 -60.636368c0 -33.48854 6.786957 -60.63636 15.159088 -60.63636l0 0c8.372131 0 15.159088 27.14782 15.159088 60.63636c0 33.48854 -6.786957 60.636368 -15.159088 60.636368l-310.60382 0c-8.372131 0 -15.159088 -27.147827 -15.159088 -60.636368c0 -33.48854 6.786957 -60.63636 15.159088 -60.63636l310.60382 0" fill-rule="evenodd"/><path fill="#595959" d="m611.32513 20.46003l0 0c-11.465759 0 -20.76056 67.148544 -20.76056 149.98047c0 82.83194 9.2948 149.98048 20.76056 149.98048l-124.5636 0c-11.465759 0 -20.76062 -67.148544 -20.76062 -149.98048c0 -82.83193 9.294861 -149.98047 20.76062 -149.98047z" fill-rule="evenodd"/><path fill="#9b9b9b" d="m611.32513 20.46003l0 0c11.465759 0 20.76062 67.148544 20.76062 149.98047c0 82.83194 -9.294861 149.98048 -20.76062 149.98048l0 0c-11.465759 0 -20.76056 -67.148544 -20.76056 -149.98048c0 -82.83193 9.2948 -149.98047 20.76056 -149.98047z" fill-rule="evenodd"/><path fill="#000000" fill-opacity="0.0" d="m611.32513 320.421l0 0c-11.465759 0 -20.76056 -67.148544 -20.76056 -149.98048c0 -82.83193 9.2948 -149.98047 20.76056 -149.98047l0 0c11.465759 0 20.76062 67.148544 20.76062 149.98047c0 82.83194 -9.294861 149.98048 -20.76062 149.98048l-124.5636 0c-11.465759 0 -20.76062 -67.148544 -20.76062 -149.98048c0 -82.83193 9.294861 -149.98047 20.76062 -149.98047l124.5636 0" fill-rule="evenodd"/><path fill="#999999" d="m415.98743 264.336l0 0c-41.444977 21.997894 -89.779785 18.163086 -126.15784 -10.009247c-36.378067 -28.172302 -55.039673 -76.22162 -48.708313 -125.41261l36.169495 4.064865l0 0c-4.8829346 36.37526 8.295593 71.795944 34.307465 92.210144c26.01184 20.414215 60.65222 22.521957 90.17877 5.487076z" fill-rule="evenodd"/><path fill="#999999" d="m343.59714 263.2994l32.76886 0l0 419.62326l-32.76886 0z" fill-rule="evenodd"/><path fill="#999999" d="m673.52264 397.87476l20.235474 25.766968l-329.92902 259.27997l-20.235474 -25.766968z" fill-rule="evenodd"/><path fill="#999999" d="m318.78036 658.08344l0 0c0 -25.348389 20.54895 -45.89734 45.89737 -45.89734l0 0c12.17276 0 23.846924 4.8355713 32.454376 13.442993c8.607422 8.607422 13.443024 20.281616 13.443024 32.454346l0 0c0 25.34845 -20.54895 45.8974 -45.8974 45.8974l0 0c-25.34842 0 -45.89737 -20.54895 -45.89737 -45.8974z" fill-rule="evenodd"/><path fill="#999999" d="m314.08325 293.69928l0 0c0 -25.34842 20.54898 -45.897385 45.8974 -45.897385l0 0c12.1727295 0 23.846924 4.835602 32.454346 13.443039c8.607422 8.607422 13.443024 20.281616 13.443024 32.454346l0 0c0 25.34842 -20.54895 45.8974 -45.89737 45.8974l0 0c-25.34842 0 -45.8974 -20.54898 -45.8974 -45.8974z" fill-rule="evenodd"/></g></svg>