<svg version="1.1" viewBox="0.0 0.0 720.0 720.0" fill="none" stroke="none" stroke-linecap="square" stroke-miterlimit="10" xmlns:xlink="http://www.w3.org/1999/xlink" xmlns="http://www.w3.org/2000/svg"><clipPath id="g1539813adea_0_170.0"><path d="m0 0l720.0 0l0 720.0l-720.0 0l0 -720.0z" clip-rule="nonzero"/></clipPath><g clip-path="url(#g1539813adea_0_170.0)"><path fill="#000000" fill-opacity="0.0" d="m0 0l720.0 0l0 720.0l-720.0 0z" fill-rule="evenodd"/><path fill="#000000" d="m7.7375326 215.05511l282.01578 0l0 289.88977l-282.01578 0z" fill-rule="evenodd"/><path fill="#000000" d="m448.4756 166.11024l0 0c57.05493 -0.03479004 103.27887 86.758514 103.24408 193.85826c-0.03479004 107.09976 -46.315125 193.94946 -103.370056 193.98425l0 0c29.471893 -49.311523 46.34015 -119.8743 46.364197 -193.9495c0.024047852 -74.075165 -16.79834 -144.6174 -46.23822 -193.89302z" fill-rule="evenodd"/><path stroke="#000000" stroke-width="24.0" stroke-linejoin="round" stroke-linecap="butt" d="m448.4756 166.11024l0 0c57.05493 -0.03479004 103.27887 86.758514 103.24408 193.85826c-0.03479004 107.09976 -46.315125 193.94946 -103.370056 193.98425l0 0c29.471893 -49.311523 46.34015 -119.8743 46.364197 -193.9495c0.024047852 -74.075165 -16.79834 -144.6174 -46.23822 -193.89302z" fill-rule="evenodd"/><path fill="#000000" d="m592.6925 123.133865l0 0c57.05493 -0.03479004 103.27893 105.999695 103.24414 236.83464c-0.03479004 130.83496 -46.315186 236.92584 -103.37012 236.96063l0 0c29.6109 -60.051575 46.579773 -146.31845 46.60388 -236.92603c0.024108887 -90.607544 -16.898926 -176.85374 -46.477905 -236.86925z" fill-rule="evenodd"/><path stroke="#000000" stroke-width="24.0" stroke-linejoin="round" stroke-linecap="butt" d="m592.6925 123.133865l0 0c57.05493 -0.03479004 103.27893 105.999695 103.24414 236.83464c-0.03479004 130.83496 -46.315186 236.92584 -103.37012 236.96063l0 0c29.6109 -60.051575 46.579773 -146.31845 46.60388 -236.92603c0.024108887 -90.607544 -16.898926 -176.85374 -46.477905 -236.86925z" fill-rule="evenodd"/><path fill="#000000" d="m383.4462 673.46454l-311.00787 -313.46454l310.78738 -313.46457z" fill-rule="evenodd"/><path fill="#000000" d="m107.41732 13.858268l598.7402 598.7402l-93.57477 93.543274l-598.7402 -598.7402z" fill-rule="evenodd"/><path stroke="#aaa1a1" stroke-width="24.0" stroke-linejoin="round" stroke-linecap="butt" d="m107.41732 13.858268l598.7402 598.7402l-93.57477 93.543274l-598.7402 -598.7402z" fill-rule="evenodd"/></g></svg>