<svg version="1.1" viewBox="0.0 0.0 140.0 140.0" fill="none" stroke="none" stroke-linecap="square" stroke-miterlimit="10" xmlns:xlink="http://www.w3.org/1999/xlink" xmlns="http://www.w3.org/2000/svg"><clipPath id="g1520650c738_0_0.0"><path d="m0 0l140.0 0l0 140.0l-140.0 0l0 -140.0z" clip-rule="nonzero"/></clipPath><g clip-path="url(#g1520650c738_0_0.0)"><path fill="#000000" fill-opacity="0.0" d="m0 0l140.0 0l0 140.0l-140.0 0z" fill-rule="evenodd"/><path fill="#000000" fill-opacity="0.0" d="m33.471592 70.00001l0 0c0 -20.18666 16.512585 -36.55118 36.881886 -36.55118l0 0c9.7816925 0 19.162743 3.8509178 26.079437 10.705593c6.9166946 6.8546753 10.80246 16.151611 10.80246 25.845589l0 0c0 20.18666 -16.512589 36.551178 -36.881897 36.551178l0 0c-20.3693 0 -36.881886 -16.364517 -36.881886 -36.551178z" fill-rule="evenodd"/><path stroke="#000000" stroke-width="24.0" stroke-linejoin="round" stroke-linecap="butt" d="m33.471592 70.00001l0 0c0 -20.18666 16.512585 -36.55118 36.881886 -36.55118l0 0c9.7816925 0 19.162743 3.8509178 26.079437 10.705593c6.9166946 6.8546753 10.80246 16.151611 10.80246 25.845589l0 0c0 20.18666 -16.512589 36.551178 -36.881897 36.551178l0 0c-20.3693 0 -36.881886 -16.364517 -36.881886 -36.551178z" fill-rule="evenodd"/><path fill="#000000" d="m0.53805774 57.889763l24.220472 0l0 24.220474l-24.220472 0z" fill-rule="evenodd"/><path fill="#000000" d="m115.24147 57.889763l24.220474 0l0 24.220474l-24.220474 0z" fill-rule="evenodd"/><path fill="#000000" d="m57.535435 0l24.22047 0l0 24.220472l-24.22047 0z" fill-rule="evenodd"/><path fill="#000000" d="m57.535435 115.779526l24.22047 0l0 24.220474l-24.22047 0z" fill-rule="evenodd"/><path fill="#000000" d="m29.44661 12.3203125l17.126297 17.126297l-17.126297 17.126297l-17.126297 -17.126297z" fill-rule="evenodd"/><path fill="#000000" d="m110.55339 93.42709l17.126297 17.126297l-17.126297 17.126297l-17.126297 -17.126297z" fill-rule="evenodd"/><path fill="#000000" d="m110.683304 11.689304l17.126297 17.126297l-17.126297 17.126297l-17.126297 -17.126297z" fill-rule="evenodd"/><path fill="#000000" d="m28.815601 93.55701l17.126297 17.126297l-17.126297 17.126297l-17.126297 -17.126297z" fill-rule="evenodd"/></g></svg>